<svg xmlns="http://www.w3.org/2000/svg" xmlns:xlink="http://www.w3.org/1999/xlink" width="500" zoomAndPan="magnify" viewBox="0 0 375 374.999991" height="500" preserveAspectRatio="xMidYMid meet" version="1.2"><defs/><g id="dfa40d4db4"><g style="fill:#000000;fill-opacity:1;"><g transform="translate(91.810633, 279.453486)"><path style="stroke:none" d="M 7.8125 -32.8125 C 7.8125 -39.570312 9.285156 -45.335938 12.234375 -50.109375 C 15.179688 -54.890625 19 -59.015625 23.6875 -62.484375 C 28.375 -65.953125 33.320312 -68.945312 38.53125 -71.46875 C 43.738281 -73.988281 48.6875 -76.289062 53.375 -78.375 C 58.0625 -80.457031 61.878906 -82.492188 64.828125 -84.484375 C 67.773438 -86.484375 69.25 -88.695312 69.25 -91.125 C 69.25 -93.550781 67.773438 -95.765625 64.828125 -97.765625 C 61.878906 -99.765625 58.0625 -101.757812 53.375 -103.75 C 48.6875 -105.75 43.738281 -108.003906 38.53125 -110.515625 C 33.320312 -113.035156 28.375 -116.03125 23.6875 -119.5 C 19 -122.976562 15.179688 -127.144531 12.234375 -132 C 9.285156 -136.863281 7.8125 -142.59375 7.8125 -149.1875 C 7.8125 -154.21875 9.066406 -159.25 11.578125 -164.28125 C 14.097656 -169.320312 18.132812 -173.578125 23.6875 -177.046875 C 29.25 -180.515625 36.367188 -182.25 45.046875 -182.25 L 146.328125 -182.25 C 155.003906 -182.25 162.078125 -180.515625 167.546875 -177.046875 C 173.015625 -173.578125 177.046875 -169.320312 179.640625 -164.28125 C 182.242188 -159.25 183.546875 -154.21875 183.546875 -149.1875 C 183.546875 -142.59375 182.070312 -136.863281 179.125 -132 C 176.175781 -127.144531 172.359375 -122.976562 167.671875 -119.5 C 162.984375 -116.03125 158.035156 -113.035156 152.828125 -110.515625 C 147.617188 -108.003906 142.671875 -105.75 137.984375 -103.75 C 133.296875 -101.757812 129.476562 -99.765625 126.53125 -97.765625 C 123.582031 -95.765625 122.109375 -93.550781 122.109375 -91.125 C 122.109375 -88.695312 123.582031 -86.484375 126.53125 -84.484375 C 129.476562 -82.492188 133.296875 -80.457031 137.984375 -78.375 C 142.671875 -76.289062 147.617188 -73.988281 152.828125 -71.46875 C 158.035156 -68.945312 162.984375 -65.953125 167.671875 -62.484375 C 172.359375 -59.015625 176.175781 -54.890625 179.125 -50.109375 C 182.070312 -45.335938 183.546875 -39.570312 183.546875 -32.8125 C 183.546875 -27.945312 182.242188 -22.953125 179.640625 -17.828125 C 177.046875 -12.710938 173.015625 -8.460938 167.546875 -5.078125 C 162.078125 -1.691406 155.003906 0 146.328125 0 L 45.046875 0 C 36.367188 0 29.25 -1.691406 23.6875 -5.078125 C 18.132812 -8.460938 14.097656 -12.710938 11.578125 -17.828125 C 9.066406 -22.953125 7.8125 -27.945312 7.8125 -32.8125 Z M 68.46875 -141.375 C 68.46875 -135.300781 69.421875 -129.53125 71.328125 -124.0625 C 73.242188 -118.59375 75.15625 -113.253906 77.0625 -108.046875 C 78.976562 -102.835938 79.9375 -97.285156 79.9375 -91.390625 C 79.9375 -85.484375 78.976562 -79.882812 77.0625 -74.59375 C 75.15625 -69.300781 73.242188 -63.960938 71.328125 -58.578125 C 69.421875 -53.203125 68.46875 -47.390625 68.46875 -41.140625 C 68.46875 -32.804688 70.941406 -25.6875 75.890625 -19.78125 C 80.835938 -13.882812 87.390625 -10.9375 95.546875 -10.9375 C 103.703125 -10.9375 110.296875 -13.882812 115.328125 -19.78125 C 120.367188 -25.6875 122.890625 -32.804688 122.890625 -41.140625 C 122.890625 -47.390625 121.929688 -53.203125 120.015625 -58.578125 C 118.109375 -63.960938 116.203125 -69.300781 114.296875 -74.59375 C 112.390625 -79.882812 111.4375 -85.484375 111.4375 -91.390625 C 111.4375 -97.285156 112.390625 -102.835938 114.296875 -108.046875 C 116.203125 -113.253906 118.109375 -118.59375 120.015625 -124.0625 C 121.929688 -129.53125 122.890625 -135.300781 122.890625 -141.375 C 122.890625 -149.707031 120.367188 -156.820312 115.328125 -162.71875 C 110.296875 -168.625 103.703125 -171.578125 95.546875 -171.578125 C 87.390625 -171.578125 80.835938 -168.625 75.890625 -162.71875 C 70.941406 -156.820312 68.46875 -149.707031 68.46875 -141.375 Z M 68.46875 -141.375 "/></g></g></g></svg>