<?xml version="1.0" encoding="UTF-8"?>
<svg xmlns="http://www.w3.org/2000/svg" version="1.1" viewBox="0 0 5000 5000">
  <defs>
    <style>
      .cls-1 {
        fill: none;
        stroke: #c1c1be;
        stroke-linecap: round;
        stroke-linejoin: round;
        stroke-width: 416.7px;
      }
    </style>
  </defs>
  <!-- Generator: Adobe Illustrator 28.7.1, SVG Export Plug-In . SVG Version: 1.2.0 Build 142)  -->
  <g>
    <g id="Layer_1">
      <path class="cls-1" d="M1666.7,1666.7h2.1M950.6,611.9l-338.6,338.6c-72.1,72.1-108.1,108.1-133.9,150.1-22.8,37.3-39.7,77.9-49.9,120.4-11.5,48-11.5,98.9-11.5,200.8v593.5c0,101.9,0,152.9,11.5,200.8,10.2,42.5,27,83.1,49.9,120.4,25.8,42,61.8,78.1,133.9,150.1l1597.6,1597.6c247.5,247.5,371.3,371.3,514,417.6,125.5,40.8,260.8,40.8,386.3,0,142.7-46.4,266.5-170.1,514-417.6l460.8-460.8c247.5-247.5,371.3-371.3,417.6-514,40.8-125.5,40.8-260.7,0-386.3-46.4-142.7-170.1-266.5-417.6-514l-1597.6-1597.6c-72.1-72.1-108.1-108.1-150.1-133.9-37.3-22.8-77.9-39.7-120.4-49.9-48-11.5-98.9-11.5-200.8-11.5h-593.5c-101.9,0-152.9,0-200.8,11.5-42.5,10.2-83.2,27-120.4,49.9-42,25.8-78.1,61.8-150.1,133.9ZM1770.8,1666.7c0,57.5-46.6,104.2-104.2,104.2s-104.2-46.6-104.2-104.2,46.6-104.2,104.2-104.2,104.2,46.6,104.2,104.2Z"/>
    </g>
  </g>
</svg>