<?xml version="1.0" encoding="UTF-8"?>
<svg id="Layer_1" xmlns="http://www.w3.org/2000/svg" version="1.1" viewBox="0 0 70 40">
  <!-- Generator: Adobe Illustrator 29.1.0, SVG Export Plug-In . SVG Version: 2.1.0 Build 142)  -->
  <defs>
    <style>
      .st0 {
        fill: #fff;
      }
    </style>
  </defs>
  <path class="st0" d="M37.3,1.6c.9-1,2.2-1.5,3.5-1.5,5.9,0,11.4,0,16.9,0,11,0,16.5,13.8,8.7,21.9l-16.9,17.6c-.8.8-2.1.2-2.1-.9v-15.5l2-2c1.6-1.6.5-4.4-1.7-4.4h-24.9L37.3,1.6Z"/>
  <path class="st0" d="M32.7,38.4c-.9,1-2.2,1.5-3.5,1.5H12.4c-11,0-16.5-13.8-8.7-21.9L20.6.4c.8-.8,2.1-.2,2.1.9v15.5s-2,2-2,2c-1.6,1.6-.5,4.4,1.7,4.4h24.9s-14.6,15.2-14.6,15.2Z"/>
</svg>