<?xml version="1.0" encoding="UTF-8"?>
<svg id="Layer_1" xmlns="http://www.w3.org/2000/svg" version="1.1" viewBox="0 0 82 40">
  <!-- Generator: Adobe Illustrator 29.1.0, SVG Export Plug-In . SVG Version: 2.1.0 Build 142)  -->
  <defs>
    <style>
      .st0 {
        fill-rule: evenodd;
      }

      .st0, .st1 {
        fill: #fff;
      }
    </style>
  </defs>
  <path class="st1" d="M80.2,5.2c0,0,0-.1-.1-.1,0,0-.1,0-.1.1h0c0,.3-.2.5-.4.5s-.4-.2-.4-.4c0-.4-.2-.7-.5-1-.5-.5-.8-1.2-.6-1.8.3-1.1.9-1.6,2-1.6s2,.9,2,2,0,.7-.2,1c-.4.7-.9.9-.9,1.6v.7c0,.2-.1.3-.3.3s-.3-.1-.3-.3v-1Z"/>
  <path class="st1" d="M44.1,8.5c6,1,12.6.4,18.4,1.8,6.7,2,10.5,7.5-.4,8.8-5.8.5-11.7-.5-17.4.5-6.1,1.2-12.3,3.3-18.9,2.3-6-.9-11.2-4.6-11.1-8.5,0-3.8,5.6-6,11.1-6.7,6.3-.6,12.4.7,18.3,1.9ZM44.5,7.8C12.7.4,10.7,11.8,10.7,13.3c-.3,4.7,6,9.6,13.4,10.6,7.7,1.1,14.3-2,21.1-3.6,6.6-1.2,13,.3,19.6-.2,11-.9,8.6-9,.8-10.8-6.6-1.6-14.2-.3-21-1.5Z"/>
  <path class="st1" d="M43.5,10.3c4.6.6,16.7,1.4,16.3,4.8-.5,2-9.9,1.8-16.1,2.4-5.3.5-18.5,1.4-18.3-4,0-5,13.3-3.7,18-3.2ZM43.7,9.6c-4.7-.7-9.7-1.4-14.5-.8-3.7.5-7.8,2-7.7,4.6-.2,2.7,3.8,4.8,7.7,5.5,4.9.9,10,0,14.9-.7,6.7-.8,18.7,0,19.2-2.8.5-4.4-13.9-5.1-19.6-5.8Z"/>
  <path class="st1" d="M43.5,12.3c2.3.1,7.9.7,7.3,2-.6,1.3-5.6,1.3-7.3,1.3-2.1,0-7.5,0-7.7-1.8,0-1.9,5.8-1.6,7.7-1.6ZM43.5,11.6c-2.8-.2-11.4-.7-11.5,2.2-.2,2.8,8.8,2.6,11.6,2.6,2.1,0,9.7,0,10.6-1.8.7-2-7.9-2.8-10.8-3.1Z"/>
  <path class="st0" d="M40.8,4c1.6.6,3.3,1.2,5,1.8,3.5,1.4,8.4.8,13.6.2,4.8-.5,9.7-1.1,13.8-.2,4.4.9,6.8,5.1,6.7,9.1h0s0,8.9,0,8.9c0,4.2-2.6,8.3-8.6,8.8-3.6.3-7-.3-10.5-.8-4.8-.7-9.6-1.5-14.5,0-2.6.9-4.9,2.1-7.3,3.4-5.4,2.8-10.9,5.6-18.6,4.8C8.4,38.6,0,31.9,0,22.6c0-.2,0-.3,0-.5v-7.6c0-.4,0-.7,0-1.1C.1,6.4,10.1.7,21,0c7.8-.5,13.7,1.7,19.8,3.9ZM57.9,7c-4.8.3-9.4.6-12.6-.4-1-.3-2.1-.7-3.2-1-2.6-.8-5.3-1.7-7.7-2.3C19.2-.5,4.7,5.1,4,13.3c-.5,5.4,7.3,13.4,17.7,14.6,4.7.4,8.8-.4,12.9-1.8,1.7-.6,3.3-1.3,4.9-2,2.1-.9,4.2-1.8,6.5-2.5,4.8-1.2,9.5-.6,14.1-.1,3.1.3,6.1.7,9,.5,2.8-.3,5.1-1,6.5-2.6,2.9-3.9,2.6-10.3-5.1-12.2-3.6-.7-8.1-.5-12.5-.2Z"/>
</svg>