<?xml version="1.0" encoding="UTF-8"?>
<svg id="logo-73" xmlns="http://www.w3.org/2000/svg" version="1.1" viewBox="0 0 60 40">
  <!-- Generator: Adobe Illustrator 29.1.0, SVG Export Plug-In . SVG Version: 2.1.0 Build 142)  -->
  <defs>
    <style>
      .st0 {
        fill: #fff;
      }
    </style>
  </defs>
  <path class="st0" d="M56.2,1.2c0,.7.6,1.2,1.2,1.2h1.2c.7,0,1.2-.6,1.2-1.2S59.4,0,58.8,0h-1.2C56.8,0,56.2.6,56.2,1.2Z"/>
  <path class="st0" d="M20,40h6.1l-1.8-1.8c-.5-.5-1.1-.7-1.8-.7h-2.5c-9.7,0-17.5-7.8-17.5-17.5S10.3,2.5,20,2.5h20c9.7,0,17.5,7.8,17.5,17.5s-7.8,17.5-17.5,17.5h-7.5c-1,0-1.9-.4-2.7-1.1l-2.1-2.1c-1.2-1.2-2.8-1.8-4.4-1.8h-3.4c-6.9,0-12.5-5.6-12.5-12.5s5.6-12.5,12.5-12.5h20c6.9,0,12.5,5.6,12.5,12.5s-5.6,12.5-12.5,12.5h-4.8c-1,0-1.9-.4-2.7-1.1l-2.1-2.1c-1.2-1.2-2.8-1.8-4.4-1.8h-6.1c-4.1,0-7.5-3.4-7.5-7.5s3.4-7.5,7.5-7.5h20c4.1,0,7.5,3.4,7.5,7.5s-3.3,7.4-7.3,7.5h0s-1.8,0-1.8,0c-1,0-1.9-.4-2.7-1.1l-2.1-2.1c-1-1-2.2-1.6-3.5-1.8h0c0,0-10,0-10,0-1.4,0-2.5-1.1-2.5-2.5s1.1-2.5,2.5-2.5h20c1.4,0,2.5,1.1,2.5,2.5s-1.1,2.5-2.5,2.5h-5l1.8,1.8c.5.5,1.1.7,1.8.7h1.5c2.8,0,5-2.2,5-5s-2.2-5-5-5h-20c-2.8,0-5,2.2-5,5s2.2,5,5,5h9.2c1,0,1.9.4,2.7,1.1l2.1,2.1c1.2,1.2,2.8,1.8,4.4,1.8h2.3c5.2-.3,9.4-4.7,9.4-10s-4.5-10-10-10h-20c-5.5,0-10,4.5-10,10s4.5,10,10,10h6.1c1,0,1.9.4,2.7,1.1l2.1,2.1c1.2,1.2,2.8,1.8,4.4,1.8h4.8c8.3,0,15-6.7,15-15s-6.7-15-15-15h-20c-8.3,0-15,6.7-15,15s6.7,15,15,15h3.4c1,0,1.9.4,2.7,1.1l2.1,2.1c1.2,1.2,2.8,1.8,4.4,1.8h7.5c11,0,20-9,20-20S51,0,40,0h-20C9,0,0,9,0,20c0,11,9,20,20,20Z"/>
</svg>