<?xml version="1.0" encoding="UTF-8"?>
<svg id="logo-67" xmlns="http://www.w3.org/2000/svg" version="1.1" viewBox="0 0 80 80">
  <!-- Generator: Adobe Illustrator 29.1.0, SVG Export Plug-In . SVG Version: 2.1.0 Build 142)  -->
  <defs>
    <style>
      .st0 {
        fill: #fff;
      }
    </style>
  </defs>
  <path class="st0" d="M10.6,53.1c.7,0,1.3-5.9,1.3-13.1s-.6-13.1-1.3-13.1-1.3,5.9-1.3,13.1.6,13.1,1.3,13.1Z"/>
  <path class="st0" d="M13.9,54.6c.8,0,1.4-6.5,1.4-14.6s-.6-14.6-1.4-14.6-1.4,6.5-1.4,14.6.6,14.6,1.4,14.6Z"/>
  <path class="st0" d="M17.7,56.2c.9,0,1.6-7.2,1.6-16.2s-.7-16.2-1.6-16.2-1.6,7.2-1.6,16.2.7,16.2,1.6,16.2Z"/>
  <path class="st0" d="M21.8,58c1,0,1.7-8.1,1.7-18s-.8-18-1.7-18-1.7,8.1-1.7,18,.8,18,1.7,18Z"/>
  <path class="st0" d="M26.4,60c1.1,0,1.9-8.9,1.9-20s-.9-20-1.9-20-1.9,8.9-1.9,20,.9,20,1.9,20Z"/>
  <path class="st0" d="M31.6,62.2c1.2,0,2.1-9.9,2.1-22.2s-1-22.2-2.1-22.2-2.1,9.9-2.1,22.2,1,22.2,2.1,22.2Z"/>
  <path class="st0" d="M37.2,64.7c1.3,0,2.4-11,2.4-24.7s-1.1-24.7-2.4-24.7-2.4,11-2.4,24.7,1.1,24.7,2.4,24.7Z"/>
  <path class="st0" d="M43.6,67.4c1.5,0,2.6-12.3,2.6-27.4s-1.2-27.4-2.6-27.4-2.6,12.3-2.6,27.4,1.2,27.4,2.6,27.4Z"/>
  <path class="st0" d="M50.6,70.5c1.6,0,2.9-13.6,2.9-30.5s-1.3-30.5-2.9-30.5-2.9,13.6-2.9,30.5,1.3,30.5,2.9,30.5Z"/>
  <path class="st0" d="M58.4,73.8c1.8,0,3.2-15.2,3.2-33.8s-1.5-33.8-3.2-33.8-3.2,15.2-3.2,33.8,1.5,33.8,3.2,33.8Z"/>
  <path class="st0" d="M67.1,77.6c2,0,3.6-16.8,3.6-37.6s-1.6-37.6-3.6-37.6-3.6,16.8-3.6,37.6,1.6,37.6,3.6,37.6Z"/>
</svg>