<?xml version="1.0" encoding="UTF-8"?>
<svg id="Layer_1" xmlns="http://www.w3.org/2000/svg" version="1.1" viewBox="0 0 224 40">
  <!-- Generator: Adobe Illustrator 29.1.0, SVG Export Plug-In . SVG Version: 2.1.0 Build 142)  -->
  <defs>
    <style>
      .st0 {
        fill-rule: evenodd;
      }

      .st0, .st1 {
        fill: #fff;
      }
    </style>
  </defs>
  <path class="st1" d="M12.6,0l10.3,8.8c.6.5,1,1.3,1,2.1v6.7l-10.3-8.8c-.6-.5-1-1.3-1-2.1V0Z"/>
  <path class="st1" d="M12.6,40l10.3-8.8c.6-.5,1-1.3,1-2.1v-6.7l-10.3,8.8c-.6.5-1,1.3-1,2.1v6.7Z"/>
  <path class="st1" d="M.3,9.3l10.2,8.7c.5.4,1.1.7,1.8.7h8.2l-10.2-8.7c-.5-.4-1.1-.7-1.8-.7H.3Z"/>
  <path class="st1" d="M.3,30.7l10.1-8.7c.5-.4,1.1-.7,1.8-.7h8.3l-10.2,8.7c-.5.4-1.1.7-1.8.7H.3Z"/>
  <path class="st1" d="M37.9,0l-10.3,8.8c-.6.5-1,1.3-1,2.1v6.7l10.3-8.8c.6-.5,1-1.3,1-2.1V0Z"/>
  <path class="st1" d="M37.9,40l-10.3-8.8c-.6-.5-1-1.3-1-2.1v-6.7l10.3,8.8c.6.5,1,1.3,1,2.1v6.7Z"/>
  <path class="st1" d="M50.3,9.3l-10.2,8.7c-.5.4-1.1.7-1.8.7h-8.2l10.2-8.7c.5-.4,1.1-.7,1.8-.7h8.2Z"/>
  <path class="st1" d="M50.3,30.7l-10.1-8.7c-.5-.4-1.1-.7-1.8-.7h-8.3l10.2,8.7c.5.4,1.1.7,1.8.7h8.2Z"/>
  <path class="st1" d="M133,10.7c-.7,0-1.2-.2-1.7-.7-.4-.4-.7-1-.7-1.7s.2-1.2.7-1.7c.4-.4,1-.7,1.7-.7s1.2.2,1.6.7c.4.4.7,1,.7,1.7s-.2,1.2-.7,1.7c-.4.4-1,.7-1.6.7Z"/>
  <path class="st1" d="M134.8,13v17.6h-3.6V13h3.6Z"/>
  <path class="st0" d="M144.7,13.5c-1.1.6-1.9,1.2-2.5,2v-2.6h-3.6v26h3.6v-10.9c.7.8,1.5,1.5,2.6,2,1,.5,2.2.8,3.6.8s2.9-.4,4.2-1.2c1.3-.8,2.3-1.9,3-3.3.7-1.4,1.1-3,1.1-4.8s-.4-3.3-1.1-4.7c-.7-1.4-1.7-2.4-3-3.2-1.3-.8-2.7-1.2-4.2-1.2s-2.5.3-3.6.8ZM152.1,18.6c.5.9.8,1.9.8,3.1s-.3,2.3-.8,3.2c-.5.9-1.2,1.6-2,2.1-.8.5-1.7.7-2.6.7s-1.8-.2-2.6-.7c-.8-.5-1.5-1.2-2-2-.5-.9-.7-2-.7-3.2s.2-2.3.7-3.2c.5-.9,1.2-1.6,2-2,.8-.5,1.7-.7,2.6-.7s1.8.2,2.6.7c.8.4,1.5,1.1,2,2Z"/>
  <path class="st1" d="M165.4,30.9c-1.4,0-2.6-.2-3.7-.7-1.1-.5-2-1.2-2.6-2-.6-.9-1-1.8-1-2.9h3.8c0,.7.4,1.4,1.1,1.9.7.5,1.5.7,2.5.7s1.8-.2,2.4-.6c.6-.4.9-.9.9-1.5s-.3-1.2-1-1.5c-.6-.3-1.6-.7-3-1.1-1.3-.4-2.4-.7-3.2-1.1-.8-.3-1.6-.9-2.2-1.6-.6-.7-.9-1.6-.9-2.8s.3-1.8.8-2.6c.6-.8,1.3-1.4,2.4-1.9,1-.4,2.2-.7,3.6-.7,2,0,3.6.5,4.8,1.5,1.2,1,1.9,2.4,2,4.1h-3.6c0-.8-.4-1.4-1-1.9-.6-.5-1.4-.7-2.3-.7s-1.7.2-2.2.5c-.5.4-.8.8-.8,1.4s.2.9.5,1.2.8.6,1.2.8c.5.2,1.2.4,2.2.7,1.3.3,2.3.7,3.1,1.1.8.3,1.5.9,2.1,1.5.6.7.9,1.6.9,2.7,0,1-.3,1.9-.8,2.7-.6.8-1.3,1.4-2.4,1.9-1,.4-2.2.7-3.6.7Z"/>
  <path class="st1" d="M219.7,13.6c-1.1-.6-2.3-.9-3.7-.9s-2.5.3-3.6,1c-1.1.6-2,1.5-2.5,2.5-.6-1.1-1.4-2-2.6-2.6-1.1-.6-2.4-.9-3.8-.9s-2,.2-2.9.6c-.9.4-1.7,1-2.3,1.7v-2h-3.6v17.6h3.6v-9.8c0-1.6.4-2.8,1.2-3.6.8-.9,1.9-1.3,3.3-1.3s2.4.4,3.2,1.3c.8.8,1.2,2,1.2,3.6v9.8h3.6v-9.8c0-1.6.4-2.8,1.2-3.6.8-.9,1.9-1.3,3.3-1.3s2.4.4,3.2,1.3c.8.8,1.2,2,1.2,3.6v9.8h3.6v-10.4c0-1.6-.3-3-1-4.1-.6-1.1-1.5-2-2.6-2.6Z"/>
  <path class="st1" d="M191,30.6V13h-3.6v9.8c0,1.6-.4,2.8-1.2,3.6-.8.8-1.9,1.2-3.2,1.2s-2.4-.4-3.2-1.2c-.8-.9-1.2-2.1-1.2-3.6v-9.8h-3.6v10.4c0,1.6.3,3,.9,4.1.6,1.1,1.5,2,2.6,2.6,1.1.6,2.4.9,3.7.9s2-.2,2.9-.6c.9-.4,1.7-1,2.3-1.7v2.1h3.6Z"/>
  <path class="st0" d="M115,29.8c1.3.7,2.8,1.1,4.5,1.1s3.2-.4,4.6-1.1c1.4-.8,2.5-1.8,3.3-3.2.8-1.4,1.2-3,1.2-4.8s-.4-3.4-1.2-4.8c-.8-1.4-1.9-2.5-3.2-3.2s-2.9-1.1-4.6-1.1-3.2.4-4.6,1.1c-1.4.7-2.4,1.8-3.2,3.2-.8,1.4-1.2,3-1.2,4.8s.4,3.4,1.2,4.8c.8,1.4,1.8,2.4,3.2,3.2ZM122.2,27.1c-.8.4-1.7.7-2.6.7-1.5,0-2.7-.5-3.7-1.5-1-1-1.4-2.5-1.4-4.4s.2-2.4.7-3.2c.5-.9,1.1-1.6,1.9-2,.8-.4,1.7-.7,2.6-.7s1.8.2,2.6.7c.8.4,1.5,1.1,2,2,.5.9.7,2,.7,3.2s-.3,2.4-.8,3.3c-.5.9-1.2,1.6-2,2Z"/>
  <path class="st0" d="M95.8,29.8s0,0,0,0c-1.3-.8-2.4-1.8-3.2-3.2-.8-1.4-1.2-3-1.2-4.8s.4-3.4,1.2-4.8c.8-1.4,1.9-2.5,3.2-3.2,1.4-.7,2.9-1.1,4.6-1.1s3.2.4,4.6,1.1c1.4.7,2.4,1.8,3.2,3.2.8,1.4,1.2,3,1.2,4.8s-.4,3.4-1.2,4.8c-.8,1.4-1.9,2.5-3.3,3.2-1.2.6-2.5,1-3.9,1.1,1.7.8,4.4,1.4,5.8,1.8.6.2,1.1.3,1.1.3h0v3.6h-13.3v-3.6h7.7c-1.9-.4-4.6-1.9-6.5-3.1ZM100.3,27.7c.9,0,1.8-.2,2.6-.7.8-.4,1.5-1.1,2-2,.5-.9.8-2,.8-3.3s-.2-2.4-.7-3.2c-.5-.9-1.1-1.6-2-2-.8-.4-1.7-.7-2.6-.7s-1.8.2-2.6.7c-.8.4-1.4,1.1-1.9,2-.5.9-.7,2-.7,3.2,0,1.9.5,3.4,1.4,4.4,1,1,2.2,1.5,3.7,1.5Z"/>
  <path class="st0" d="M76.5,29.8c1.3.7,2.8,1.1,4.5,1.1s3.2-.4,4.6-1.1c1.4-.8,2.5-1.8,3.3-3.2.8-1.4,1.2-3,1.2-4.8s-.4-3.4-1.2-4.8c-.8-1.4-1.9-2.5-3.2-3.2s-2.9-1.1-4.6-1.1-3.2.4-4.6,1.1-2.4,1.8-3.2,3.2c-.8,1.4-1.2,3-1.2,4.8s.4,3.4,1.2,4.8c.8,1.4,1.8,2.4,3.2,3.2ZM83.6,27.1c-.8.4-1.7.7-2.6.7-1.5,0-2.7-.5-3.7-1.5-1-1-1.4-2.5-1.4-4.4s.2-2.4.7-3.2c.5-.9,1.1-1.6,1.9-2,.8-.4,1.7-.7,2.6-.7s1.8.2,2.6.7c.8.4,1.5,1.1,2,2,.5.9.7,2,.7,3.2s-.3,2.4-.8,3.3c-.5.9-1.2,1.6-2,2Z"/>
  <path class="st1" d="M63.9,27.7h7.5v2.9h-11.2V8.4h3.6v19.3Z"/>
</svg>